<?xml version="1.0" encoding="utf-8" ?>
<svg
  width="1024.000000pt"
  height="1024.000000pt"
  viewBox="0 0 1024.000000 1024.000000"
  xmlns="http://www.w3.org/2000/svg"
  xmlns:xlink="http://www.w3.org/1999/xlink"
  version="1.1"
>
	<g>
		<path
      transform=" translate(-3000 -2000) scale(7, 7)"
      d="M504.95,392.21L503.21,396.61L502.74,397.43L502.15,397.97L501.44,398.27L500.37,398.38L495.88,398.27L494.87,398.03L494.57,397.85L494.06,397.31L493.44,396.32L492.64,394.61L491.35,393.03L490.64,391.81L490.17,391.2L489.53,390.77L487.64,390.19L486.34,389.58L485.5,389.6L484.8,389.92L484.39,390.21L481.83,392.65L480.78,393.89L478.17,397.35L478.17,397.35L477.22,395.71L476.54,394.78L474.86,393.16L473.33,392.06L473.14,391.68L473.01,390.18L473.08,382.54L473.28,381.53L473.96,380.27L474.09,379.78L474.18,378.73L474.11,377.68L473.73,376.76L472.43,375.18L471.49,373.65L471.23,373.37L470.6,372.94L469.71,372.69L467.58,372.36L466.27,371.71L465.76,371.58L463.61,371.34L463.11,371.21L460.62,369.87L459.87,369.33L458.93,368.3L457.87,366.2L457.52,365.27L457.2,363.75L456.53,362.45L456.4,361.96L456.32,360.9L456.4,359.85L456.53,359.36L457.24,358.11L457.63,357.19L458.37,355.96L458.76,355.03L459.5,353.8L459.89,352.87L460.63,351.64L461.03,350.71L461.73,349.46L461.86,348.97L461.86,347.95L461.74,347.46L460.62,345.23L460.02,344.42L458.24,342.55L457.99,342.18L457.88,341.81L458.06,341.25L459.2,339.36L461.02,336.01L461.02,336.01L463.11,339.53L463.7,340.25L464.15,340.46L464.52,340.37L464.88,340.13L466.46,338.95L467.79,338.33L469.64,336.96L472.03,335.73L473.01,335.4L475.89,334.03L477.43,333.51L480.88,332.46L482.12,332.54L483.29,333.14L484.79,334.19L486.89,335.31L488.05,336.41L488.26,336.97L488.15,337.34L487.56,338.07L486.13,339.5L485.88,339.86L485.76,340.23L485.83,340.61L486.58,342.38L487.16,343.38L487.63,344.05L488.18,344.61L489.2,345.3L489.87,345.64L490.37,345.76L491.34,345.73L491.72,345.55L493.23,343.23L493.8,342.81L494.28,342.67L495.35,342.59L498.72,342.66L500.35,342.85L501.44,343.37L502.89,344.52L504.58,345.42L507.44,348.17L508.24,348.83L509.33,349.33L512.08,349.58L512.62,349.68L513.36,349.98L514.13,350.5L515.84,352.24L516.35,352.98L517.02,354.33L519.45,357.01L519.83,357.92L519.92,359.53L519.81,361.13L519.67,361.62L518.99,362.88L518.79,363.89L518.77,367.14L518.97,368.16L521.92,373.85L522.08,374.85L521.92,375.85L521.21,377.1L520.82,378.03L520.08,379.26L519.46,380.6L518.3,382.52L517.76,383.04L515.34,384.35L514.38,384.7L513.11,385.39L512.15,385.75L510.86,386.4L509.82,386.56L507.08,386.62L506.58,386.73L505.26,387.33L503.15,387.6L502.66,387.74L502.08,388.15L501.6,388.75L501.05,389.74L500.93,390.75L501.03,391.25L501.25,391.7L501.6,392.04L502.54,392.29z"
    />
	</g>
</svg>
