<?xml version="1.0" encoding="utf-8"?>
<!-- (c) ammap.com | SVG map of Azerbaijan - High -->
<svg xmlns="http://www.w3.org/2000/svg" xmlns:amcharts="http://amcharts.com/ammap" xmlns:xlink="http://www.w3.org/1999/xlink" version="1.1">
	<g>
        <path id="AZ-MAS" title="Masallı" class="land" d="M548.8,511.06L543.3,511.5L541.33,513.47L541.09,515.93L539.61,518.39L539.41,520.42L537.05,520.36L537.05,520.36L535.98,520.49L535.27,520.79L534.98,521.02L534.73,521.29L532.91,524.41L532.44,524.99L532.14,525.21L531.44,525.5L529.3,525.78L528.55,526.04L526.37,527.49L524.99,528.15L522.93,529.9L522.14,530.41L521.4,530.69L519.87,531.04L518.57,531.69L516.8,532.4L516.41,532.48L515.39,532.13L513.7,531.15L511.2,528.93L509.19,527.83L506.45,525.57L506.45,525.57L506.42,522.18L506.21,520.92L504.86,518.32L500.4,513.28L500.4,513.28L498.3,511.7L497.57,511.42L497.12,511.54L495.74,512.44L494.63,512.91L494.11,513L493.07,512.94L492.35,512.59L491.95,511.91L491.64,510.95L490.99,509.61L490.86,509.04L490.87,507.12L491.17,505.52L491.17,505.52L494.69,504.62L498.02,504.36L499.12,503.9L500.31,502.94L501.53,501.61L501.88,500.76L502.18,499.26L503.53,496.68L504.25,495.89L506.23,494.04L507.37,493.21L509.84,491.96L510.8,491.61L512.08,490.93L513.05,490.59L515.18,489.52L515.77,489.13L516.04,488.66L516.01,488.39L515.17,486.59L513.55,484.61L513.3,484.19L513.15,483.7L513.09,482.66L513.15,482.14L513.3,481.67L513.73,481.12L515.05,480.3L515.91,480.08L516.98,480.13L517.49,480.27L518.82,480.96L519.31,481.08L519.79,481.09L520.2,480.99L520.53,480.59L520.53,480.29L520.02,478.96L519.91,477.97L520.03,477.53L520.22,477.27L520.47,477.08L520.93,476.93L522.02,476.88L523.18,477.06L525.89,478.14L525.89,478.14L527.73,480.34L527.73,480.34L528.48,480.98L528.48,480.98L529.28,481.31L529.28,481.31L529.82,481.39L529.82,481.39L532.04,481.43L532.04,481.43L533.08,481.25L533.08,481.25L534.4,480.65L534.91,480.53L534.91,480.53L536.58,480.45L536.58,480.45L538.19,480.5L540.94,480.79L540,485.75L539.85,487.55L539.89,491.34L540.12,492.21L540.52,492.86L540.52,492.86L541.06,493.31L541.06,493.31L542.37,493.98L543.09,494.55L545.39,496.76L546.09,497.58L546.09,497.58L546.31,498.01L546.31,498.01L546.39,498.47L546.32,498.93L545.68,500.17L545.54,500.66L545.54,500.66L545.46,501.17L545.46,501.17L545.41,502.78L545.5,503.83L545.5,503.83L545.84,504.75L545.84,504.75L547,506.92L547,506.92L548.31,508.49L548.56,508.93L548.56,508.93L548.78,510.01z"/>	
    </g>
</svg>